<svg data-noselect="" viewBox="0 0 401.8550567626953 164" width="401.8550567626953" height="164" preserveAspectRatio="none" version="1.1" xmlns="http://www.w3.org/2000/svg" style="background: rgba(255, 255, 255, 0);"><defs></defs> <g id="shape_pq4DNhlUzB" transform="translate(30,30) rotate(0,51.5,52) scale(1,1)" filter="" style="cursor: move; opacity: 1;"><g><rect fill="rgba(0,0,0,0)" width="123" height="124" x="-10" y="-10"></rect><svg xmlns="http://www.w3.org/2000/svg" xmlns:xlink="http://www.w3.org/1999/xlink" shape-rendering="auto" id="layer1" text-rendering="auto" width="103" contentscripttype="text/ecmascript" color-rendering="auto" color-interpolation="auto" xml:space="preserve" preserveAspectRatio="none" viewBox="0 0 103.607 104.282" image-rendering="auto" zoomAndPan="magnify" version="1.1" contentstyletype="text/css" x="0px" enable-background="new 0 0 103.607 104.282" height="104" y="0px" data-parent="shape_pq4DNhlUzB">
 <g fill="#FFFFFF">
  <path clip-rule="evenodd" d="M95.916,36.547c8.033,22.394-13.607,44.132-42.334,45.167   C30.433,82.474,10.874,68.487,7.28,49.587c0-0.096-0.094-0.191-0.187-0.191c-0.19,0-0.285,0.096-0.285,0.287   C8.224,72.36,29.299,91.827,55.287,90.69c10.203-0.375,24.848-2.926,36.094-16.441c0.189-0.188,0.471,0,0.375,0.289   c-7.932,13.697-22.49,23.146-39.494,23.713C25.988,99.198,3.975,78.599,3.029,52.329C2.087,24.829,24.383,2.906,50.277,3   c26.365,0.191,30.427,15.971,23.054,27.689C59.63,53.085,17.865,56.581,11.91,36.451c-0.188-0.85-0.568-2.928-0.568-4.247   c0-0.096-0.095-0.193-0.281-0.193c-0.094,0-0.188,0.097-0.188,0.285c-3.214,18.331,19.18,29.668,43.842,21.92   c19.467-6.046,33.07-20.125,29.012-36.753c0-0.38,0.277-0.475,0.471-0.192c11.527,16.727,0.754,40.541-29.102,46.771   C33.268,68.585,12.764,58.94,9.265,42.595c-0.186-0.756-0.376-1.508-0.376-2.27c-0.093-0.095-0.189-0.184-0.286-0.184   c-0.095,0-0.283,0.089-0.283,0.184c-1.133,21.36,24.286,37.514,50.934,31.659c20.881-4.631,36.385-18.145,36.191-35.437   C95.445,36.266,95.82,36.266,95.916,36.547L95.916,36.547z M34.402,43.351c22.771-1.702,35.72-20.221,29.953-29.86   c-4.631-7.562-19.084-9.92-33.542-1.797c-8.412,4.918-13.23,12.381-10.777,16.821c2.458,4.441,11.531,4.727,20.13,0.19   l-5.763-10.206c3.778-2.742,17.671-8.029,21.261-1.511c2.551,4.537-3.121,14.27-15.971,18.709   c-10.775,3.684-21.356,1.228-23.718-5.478c-0.943-2.836-0.378-5.955,1.417-8.787c0.096-0.194,0-0.288-0.096-0.382   c-0.094,0-0.279,0-0.279,0.094C7.187,34.091,17.961,44.673,34.402,43.351L34.402,43.351z" fill-rule="evenodd"></path>
 </g>
 <!--Copyright (c) Logomaker.com.cn  @2015-05-30-->
</svg></g> <!----></g><g id="shapge_80wDa1TTbe" transform="translate(145.50001525878906,45.5) rotate(0,58,14.5) scale(1,1)" filter="" style="cursor: move; opacity: 1;"><g><svg xmlns="http://www.w3.org/2000/svg" version="1.1" xmlns:xlink="http://www.w3.org/1999/xlink" overflow="hidden" style="top:0; left: 0" width="116" height="29" viewBox="0 0 116 29" preserveAspectRatio="none" data-parent="shapge_80wDa1TTbe"><rect fill="rgba(0,0,0,0)" width="116" height="29"></rect> <rect opacity="0"></rect><g transform="translate(0 0)" data-width="116"><path fill="#FFFFFF" d="M13.46-0.78L13.46-23.81L15.75-23.81L15.75-0.78L15.75-0.78Q15.75 0.41 15.40 1.00L15.40 1.00L15.40 1.00Q15.05 1.59 14.33 1.89L14.33 1.89L14.33 1.89Q13.54 2.15 12.19 2.22L12.19 2.22L12.19 2.22Q10.85 2.29 8.79 2.29L8.79 2.29L8.79 2.29Q8.67 1.80 8.42 1.13L8.42 1.13L8.42 1.13Q8.18 0.46 7.92-0.03L7.92-0.03L7.92-0.03Q9.54 0 10.86 0.01L10.86 0.01L10.86 0.01Q12.18 0.03 12.64 0L12.64 0L12.64 0Q13.51 0 13.46-0.78L13.46-0.78ZM20.39-16.53L20.39-16.53L22.39-17.40L22.39-17.40Q24.33-14.27 25.91-10.79L25.91-10.79L25.91-10.79Q27.49-7.31 28.07-4.64L28.07-4.64L25.84-3.63L25.84-3.63Q25.26-6.26 23.77-9.80L23.77-9.80L23.77-9.80Q22.27-13.34 20.39-16.53ZM5.92-17.08L5.92-17.08L8.29-16.65L8.29-16.65Q7.57-13.34 6.24-9.85L6.24-9.85L6.24-9.85Q4.90-6.35 2.87-3.80L2.87-3.80L2.87-3.80Q2.49-4.09 1.94-4.47L1.94-4.47L1.94-4.47Q1.39-4.84 0.96-5.08L0.96-5.08L0.96-5.08Q2.93-7.45 4.15-10.74L4.15-10.74L4.15-10.74Q5.37-14.04 5.92-17.08Z" transform="translate(0 25.52)"></path><path fill="#FFFFFF" d="M7.74-7.42L7.74-19.52L4.23-19.52L4.23-7.42L7.74-7.42ZM2.23-21.52L9.74-21.52L9.74-5.42L4.23-5.42L4.23-2.67L2.23-2.67L2.23-21.52ZM22.74-1.19L22.74-7.63L14.85-7.63L14.85-1.19L22.74-1.19ZM14.85 2.32L12.76 2.32L12.76-9.57L24.88-9.57L24.88 2.23L22.74 2.23L22.74 0.75L14.85 0.75L14.85 2.32ZM14.73-14.82L14.73-14.82L23.43-14.82L23.43-14.82Q20.88-17.43 19.02-20.76L19.02-20.76L19.02-20.76Q17.31-17.49 14.73-14.82ZM18.27-24.21L18.27-24.21L20.33-23.66L20.33-23.66Q20.27-23.52 20.21-23.37L20.21-23.37L20.21-23.37Q20.10-23.08 19.98-22.79L19.98-22.79L19.98-22.79Q23.00-17.20 27.84-14.18L27.84-14.18L27.84-14.18Q27.46-13.86 27.01-13.35L27.01-13.35L27.01-13.35Q26.56-12.85 26.27-12.41L26.27-12.41L26.27-12.41Q24.94-13.34 23.66-14.59L23.66-14.59L23.66-12.85L14.15-12.85L14.15-14.27L14.15-14.27Q12.93-13.08 11.54-12.12L11.54-12.12L11.54-12.12Q11.25-12.47 10.82-12.92L10.82-12.92L10.82-12.92Q10.38-13.37 9.98-13.66L9.98-13.66L9.98-13.66Q15.89-17.84 18.27-24.21Z" transform="translate(29 25.52)"></path><path fill="#FFFFFF" d="M14.41-20.04L14.41-0.99L27.46-0.99L27.46 1.13L1.59 1.13L1.59-0.99L12.15-0.99L12.15-20.04L3.42-20.04L3.42-22.16L25.14-22.16L25.14-9.95L25.14-9.95Q25.14-9.02 24.85-8.47L24.85-8.47L24.85-8.47Q24.56-7.92 23.78-7.66L23.78-7.66L23.78-7.66Q23.00-7.40 21.62-7.34L21.62-7.34L21.62-7.34Q20.24-7.28 18.27-7.28L18.27-7.28L18.27-7.28Q18.18-7.77 17.92-8.37L17.92-8.37L17.92-8.37Q17.66-8.96 17.40-9.40L17.40-9.40L17.40-9.40Q19.11-9.34 20.43-9.32L20.43-9.32L20.43-9.32Q21.75-9.31 22.27-9.37L22.27-9.37L22.27-9.37Q22.68-9.40 22.84-9.53L22.84-9.53L22.84-9.53Q23.00-9.66 23.00-10.01L23.00-10.01L23.00-20.04L14.41-20.04Z" transform="translate(58 25.52)"></path><path fill="#FFFFFF" d="M27.43-15.08L27.43-12.96L15.57-12.96L15.57-1.51L25.90-1.51L25.90 0.61L3.25 0.61L3.25-1.51L13.31-1.51L13.31-12.96L1.62-12.96L1.62-15.08L13.31-15.08L13.31-24.16L15.57-24.16L15.57-15.08L27.43-15.08Z" transform="translate(87 25.52)"></path></g></svg></g> <!----></g><g id="shapge_hYUCoytP3E" transform="translate(145.5000762939453,89) rotate(0,113.177490234375,15.625) scale(1,1)" filter="" style="cursor: move; opacity: 1;"><g><svg xmlns="http://www.w3.org/2000/svg" version="1.1" xmlns:xlink="http://www.w3.org/1999/xlink" overflow="hidden" style="top:0; left: 0" width="226.35498046875" height="31.25" viewBox="0 0 226.35498046875 31.25" preserveAspectRatio="none" data-parent="shapge_hYUCoytP3E"><rect fill="rgba(0,0,0,0)" width="226.35498046875" height="31.25"></rect> <rect opacity="0"></rect><g transform="translate(0 0)" data-width="157.11669921875"><path fill="#FFFFFF" d="M2.16 0L2.16-17.27L8.40-17.27L8.40-12.67L12.50-12.67L12.50-12.67Q13.17-12.67 13.67-12.67L13.67-12.67L13.67-12.67Q14.17-12.67 14.54-12.68L14.54-12.68L14.54-14.81L14.54-14.81Q14.54-15.36 14.53-15.67L14.53-15.67L14.53-15.67Q14.53-15.98 14.50-16.19L14.50-16.19L14.50-16.19Q14.48-16.39 14.46-16.56L14.46-16.56L14.46-16.56Q14.44-16.72 14.44-16.85L14.44-16.85L14.44-16.85Q14.44-17.13 14.58-17.27L14.58-17.27L14.58-17.27Q14.72-17.41 14.95-17.41L14.95-17.41L14.95-17.41Q15.14-17.41 15.33-17.26L15.33-17.26L15.33-17.26Q15.53-17.11 15.53-16.77L15.53-16.77L15.53-16.77Q15.53-16.61 15.52-16.51L15.52-16.51L15.52-16.51Q15.52-16.41 15.50-16.26L15.50-16.26L15.50-16.26Q15.49-16.10 15.48-15.86L15.48-15.86L15.48-15.86Q15.48-15.63 15.48-15.21L15.48-15.21L15.48-12.73L15.48-12.73Q15.58-12.74 15.66-12.75L15.66-12.75L15.66-12.75Q15.73-12.76 15.80-12.78L15.80-12.78L15.80-12.78Q15.89-12.81 15.99-12.82L15.99-12.82L15.99-12.82Q16.09-12.84 16.25-12.84L16.25-12.84L16.25-12.84Q16.47-12.84 16.61-12.71L16.61-12.71L16.61-12.71Q16.76-12.59 16.76-12.38L16.76-12.38L16.76-12.38Q16.76-11.90 16.00-11.84L16.00-11.84L16.00-11.84Q15.87-11.82 15.74-11.81L15.74-11.81L15.74-11.81Q15.61-11.80 15.48-11.79L15.48-11.79L15.48-1.77L15.48-1.77Q15.48-1.23 15.50-0.96L15.50-0.96L15.50-0.96Q15.52-0.70 15.52-0.52L15.52-0.52L15.52-0.52Q15.52-0.21 15.33-0.04L15.33-0.04L15.33-0.04Q15.15 0.13 14.92 0.13L14.92 0.13L14.92 0.13Q14.67 0.13 14.53-0.02L14.53-0.02L14.53-0.02Q14.39-0.18 14.39-0.43L14.39-0.43L14.39-0.43Q14.39-0.67 14.49-1.09L14.49-1.09L14.49-1.09Q14.53-1.29 14.53-1.75L14.53-1.75L14.53-1.75Q14.54-2.21 14.54-2.87L14.54-2.87L14.54-11.78L8.40-11.78L8.40 0L2.16 0Z" transform="translate(0 23.4375)"></path><path fill="#FFFFFF" d="M0.21-0.37L0.21-0.37L0.21-0.37Q0.21-0.49 0.30-0.66L0.30-0.66L0.30-0.66Q0.39-0.83 0.56-1.06L0.56-1.06L0.56-1.06Q0.68-1.26 0.83-1.54L0.83-1.54L0.83-1.54Q0.98-1.83 1.16-2.26L1.16-2.26L1.16-2.26Q1.03-2.27 0.92-2.28L0.92-2.28L0.92-2.28Q0.81-2.29 0.71-2.32L0.71-2.32L0.71-2.32Q0.43-2.37 0.27-2.52L0.27-2.52L0.27-2.52Q0.11-2.67 0.11-2.88L0.11-2.88L0.11-2.88Q0.11-3.13 0.28-3.25L0.28-3.25L0.28-3.25Q0.45-3.38 0.71-3.38L0.71-3.38L0.71-3.38Q0.77-3.38 0.96-3.36L0.96-3.36L0.96-3.36Q1.16-3.34 1.46-3.28L1.46-3.28L1.56-3.26L7.65-18.05L16.00 0L9.64 0L8.63-2.17L5.21-2.17L5.21-2.17Q4.17-2.17 3.44-2.18L3.44-2.18L3.44-2.18Q2.71-2.19 2.16-2.21L2.16-2.21L2.16-2.21Q1.95-1.71 1.80-1.36L1.80-1.36L1.80-1.36Q1.65-1.01 1.56-0.77L1.56-0.77L1.56-0.77Q1.37-0.23 1.19-0.05L1.19-0.05L1.19-0.05Q1.01 0.13 0.73 0.13L0.73 0.13L0.73 0.13Q0.50 0.13 0.35-0.01L0.35-0.01L0.35-0.01Q0.21-0.16 0.21-0.37ZM5.18-9.64L2.55-3.16L2.55-3.16Q3.14-3.11 3.72-3.09L3.72-3.09L3.72-3.09Q4.30-3.06 4.65-3.06L4.65-3.06L8.23-3.06L5.18-9.64Z" transform="translate(17.83447265625 23.4375)"></path><path fill="#FFFFFF" d="M7.92 0.67L-0.11-17.27L6.56-17.27L10.44-8.14L13.16-14.95L13.16-14.95Q13.34-15.41 13.49-15.82L13.49-15.82L13.49-15.82Q13.65-16.24 13.75-16.65L13.75-16.65L13.75-16.65Q13.87-17.03 14.03-17.22L14.03-17.22L14.03-17.22Q14.18-17.41 14.48-17.41L14.48-17.41L14.48-17.41Q14.75-17.41 14.86-17.24L14.86-17.24L14.86-17.24Q14.98-17.07 14.98-16.88L14.98-16.88L14.98-16.88Q14.98-16.72 14.94-16.58L14.94-16.58L14.94-16.58Q14.89-16.43 14.72-16.06L14.72-16.06L14.72-16.06Q14.65-15.92 14.56-15.70L14.56-15.70L14.56-15.70Q14.47-15.49 14.36-15.24L14.36-15.24L14.36-15.24Q14.26-14.99 14.15-14.72L14.15-14.72L14.15-14.72Q14.04-14.45 13.93-14.20L13.93-14.20L7.92 0.67Z" transform="translate(34.375 23.4375)"></path><path fill="#FFFFFF" d="M0.21-0.37L0.21-0.37L0.21-0.37Q0.21-0.49 0.30-0.66L0.30-0.66L0.30-0.66Q0.39-0.83 0.56-1.06L0.56-1.06L0.56-1.06Q0.68-1.26 0.83-1.54L0.83-1.54L0.83-1.54Q0.98-1.83 1.16-2.26L1.16-2.26L1.16-2.26Q1.03-2.27 0.92-2.28L0.92-2.28L0.92-2.28Q0.81-2.29 0.71-2.32L0.71-2.32L0.71-2.32Q0.43-2.37 0.27-2.52L0.27-2.52L0.27-2.52Q0.11-2.67 0.11-2.88L0.11-2.88L0.11-2.88Q0.11-3.13 0.28-3.25L0.28-3.25L0.28-3.25Q0.45-3.38 0.71-3.38L0.71-3.38L0.71-3.38Q0.77-3.38 0.96-3.36L0.96-3.36L0.96-3.36Q1.16-3.34 1.46-3.28L1.46-3.28L1.56-3.26L7.65-18.05L16.00 0L9.64 0L8.63-2.17L5.21-2.17L5.21-2.17Q4.17-2.17 3.44-2.18L3.44-2.18L3.44-2.18Q2.71-2.19 2.16-2.21L2.16-2.21L2.16-2.21Q1.95-1.71 1.80-1.36L1.80-1.36L1.80-1.36Q1.65-1.01 1.56-0.77L1.56-0.77L1.56-0.77Q1.37-0.23 1.19-0.05L1.19-0.05L1.19-0.05Q1.01 0.13 0.73 0.13L0.73 0.13L0.73 0.13Q0.50 0.13 0.35-0.01L0.35-0.01L0.35-0.01Q0.21-0.16 0.21-0.37ZM5.18-9.64L2.55-3.16L2.55-3.16Q3.14-3.11 3.72-3.09L3.72-3.09L3.72-3.09Q4.30-3.06 4.65-3.06L4.65-3.06L8.23-3.06L5.18-9.64Z" transform="translate(49.755859375 23.4375)"></path><path fill="#FFFFFF" d="" transform="translate(66.29638671875 23.4375)"></path><path fill="#FFFFFF" d="M1.07-8.41L1.07-8.41L1.07-8.41Q1.07-9.63 1.39-10.78L1.39-10.78L1.39-10.78Q1.70-11.94 2.28-12.95L2.28-12.95L2.28-12.95Q2.87-13.95 3.72-14.79L3.72-14.79L3.72-14.79Q4.57-15.63 5.62-16.23L5.62-16.23L5.62-16.23Q6.68-16.83 7.93-17.16L7.93-17.16L7.93-17.16Q9.19-17.49 10.61-17.49L10.61-17.49L10.61-17.49Q11.66-17.49 12.65-17.28L12.65-17.28L12.65-17.28Q13.64-17.07 14.40-16.71L14.40-16.71L14.40-16.71Q15.44-16.25 15.87-15.85L15.87-15.85L15.87-15.85Q16.30-15.45 16.30-15.21L16.30-15.21L16.30-15.21Q16.30-14.98 16.15-14.81L16.15-14.81L16.15-14.81Q16.00-14.64 15.77-14.64L15.77-14.64L15.77-14.64Q15.48-14.64 15.09-14.97L15.09-14.97L15.09-14.97Q14.83-15.21 14.37-15.54L14.37-15.54L14.37-15.54Q13.90-15.87 13.34-16.08L13.34-16.08L13.34-16.08Q12.79-16.26 12.37-16.37L12.37-16.37L12.37-16.37Q11.94-16.48 11.59-16.53L11.59-16.53L11.59-16.53Q11.24-16.58 10.97-16.59L10.97-16.59L10.97-16.59Q10.69-16.60 10.44-16.60L10.44-16.60L10.44-16.60Q9.63-16.60 9.02-16.48L9.02-16.48L9.02-0.68L9.02-0.68Q9.16-0.67 9.29-0.67L9.29-0.67L9.29-0.67Q9.42-0.67 9.53-0.67L9.53-0.67L9.53-0.67Q10.62-0.67 11.69-0.96L11.69-0.96L11.69-0.96Q12.76-1.26 13.70-1.87L13.70-1.87L13.70-1.87Q14.64-2.48 15.41-3.42L15.41-3.42L15.41-3.42Q16.17-4.36 16.67-5.64L16.67-5.64L16.67-6.81L16.67-6.81Q16.67-7.01 16.67-7.16L16.67-7.16L16.67-7.16Q16.66-7.31 16.65-7.45L16.65-7.45L16.65-7.45Q16.61-7.74 16.61-7.91L16.61-7.91L16.61-7.91Q16.61-8.19 16.74-8.37L16.74-8.37L16.74-8.37Q16.87-8.56 17.13-8.56L17.13-8.56L17.13-8.56Q17.40-8.56 17.54-8.38L17.54-8.38L17.54-8.38Q17.69-8.20 17.69-7.95L17.69-7.95L17.69-7.95Q17.69-7.78 17.68-7.64L17.68-7.64L17.68-7.64Q17.66-7.50 17.64-7.32L17.64-7.32L17.64-7.32Q17.61-7.15 17.61-6.94L17.61-6.94L17.61-6.94Q17.61-6.73 17.61-6.41L17.61-6.41L17.61-2.39L17.61-2.39Q17.61-2.14 17.62-1.90L17.62-1.90L17.62-1.90Q17.63-1.67 17.64-1.50L17.64-1.50L17.64-1.50Q17.66-1.15 17.68-0.93L17.68-0.93L17.68-0.93Q17.69-0.71 17.69-0.50L17.69-0.50L17.69-0.50Q17.69-0.21 17.52-0.04L17.52-0.04L17.52-0.04Q17.36 0.13 17.14 0.13L17.14 0.13L17.14 0.13Q16.60 0.13 16.60-0.43L16.60-0.43L16.60-0.43Q16.60-0.49 16.61-0.61L16.61-0.61L16.61-0.61Q16.63-0.73 16.65-0.89L16.65-0.89L16.65-0.89Q16.65-0.95 16.66-1.09L16.66-1.09L16.66-1.09Q16.66-1.22 16.67-1.39L16.67-1.39L16.67-1.39Q16.67-1.55 16.67-1.73L16.67-1.73L16.67-1.73Q16.67-1.92 16.67-2.06L16.67-2.06L16.67-3.66L16.67-3.66Q16.09-2.69 15.31-1.95L15.31-1.95L15.31-1.95Q14.53-1.22 13.59-0.74L13.59-0.74L13.59-0.74Q12.65-0.26 11.59-0.01L11.59-0.01L11.59-0.01Q10.53 0.23 9.40 0.23L9.40 0.23L9.40 0.23Q7.71 0.23 6.21-0.35L6.21-0.35L6.21-0.35Q4.70-0.94 3.56-2.05L3.56-2.05L3.56-2.05Q2.42-3.16 1.75-4.77L1.75-4.77L1.75-4.77Q1.07-6.37 1.07-8.41Z" transform="translate(71.86279296875 23.4375)"></path><path fill="#FFFFFF" d="M2.10-3.96L2.10-13.04L7.32-13.04L7.32-1.09L7.32-1.09Q7.45-1.03 7.63-1.03L7.63-1.03L7.63-1.03Q7.81-1.03 8.03-1.03L8.03-1.03L8.03-1.03Q8.33-1.03 8.71-1.19L8.71-1.19L8.71-1.19Q9.09-1.35 9.52-1.65L9.52-1.65L9.52-1.65Q9.94-1.94 10.35-2.34L10.35-2.34L10.35-2.34Q10.75-2.75 11.11-3.22L11.11-3.22L11.11-13.04L16.36-13.04L16.36 0L11.11 0L11.11-1.88L11.11-1.88Q10.07-0.78 8.84-0.27L8.84-0.27L8.84-0.27Q7.62 0.23 6.38 0.23L6.38 0.23L6.38 0.23Q4.20 0.23 3.15-0.82L3.15-0.82L3.15-0.82Q2.10-1.87 2.10-3.96L2.10-3.96Z" transform="translate(91.6259765625 23.4375)"></path><path fill="#FFFFFF" d="M2.11 0L2.11-13.04L7.36-13.04L7.36-9.20L7.36-9.20Q8.20-11.29 9.17-12.27L9.17-12.27L9.17-12.27Q10.14-13.26 11.12-13.26L11.12-13.26L11.12-13.26Q11.67-13.26 11.99-12.97L11.99-12.97L11.99-12.97Q12.32-12.68 12.32-12.23L12.32-12.23L12.32-12.23Q12.32-11.98 12.22-11.77L12.22-11.77L12.22-11.77Q12.12-11.56 11.96-11.41L11.96-11.41L11.96-11.41Q11.80-11.27 11.60-11.19L11.60-11.19L11.60-11.19Q11.40-11.11 11.19-11.11L11.19-11.11L11.19-11.11Q11.05-11.11 10.92-11.13L10.92-11.13L10.92-11.13Q10.79-11.15 10.57-11.24L10.57-11.24L10.57-11.24Q10.44-11.30 10.30-11.34L10.30-11.34L10.30-11.34Q10.17-11.38 10.01-11.38L10.01-11.38L10.01-11.38Q9.69-11.38 9.24-10.91L9.24-10.91L9.24-10.91Q8.79-10.44 8.37-9.61L8.37-9.61L8.37-9.61Q7.96-8.78 7.66-7.65L7.66-7.65L7.66-7.65Q7.36-6.53 7.36-5.21L7.36-5.21L7.36 0L2.11 0Z" transform="translate(109.86328125 23.4375)"></path><path fill="#FFFFFF" d="M1.17-4.66L1.17-4.66L1.17-4.66Q1.17-5.68 1.58-6.54L1.58-6.54L1.58-6.54Q1.99-7.40 2.75-8.03L2.75-8.03L2.75-8.03Q3.50-8.65 4.58-9.01L4.58-9.01L4.58-9.01Q5.65-9.36 6.98-9.36L6.98-9.36L6.98-9.36Q7.79-9.36 8.64-9.20L8.64-9.20L8.64-9.20Q9.50-9.03 10.28-8.69L10.28-8.69L10.28-12.05L10.28-12.05Q9.77-12.19 9.18-12.28L9.18-12.28L9.18-12.28Q8.59-12.37 8.04-12.37L8.04-12.37L8.04-12.37Q7.47-12.37 6.88-12.29L6.88-12.29L6.88-12.29Q6.30-12.22 5.77-12.07L5.77-12.07L5.77-12.07Q5.25-11.93 4.80-11.71L4.80-11.71L4.80-11.71Q4.36-11.50 4.05-11.22L4.05-11.22L4.05-11.22Q3.88-11.06 3.71-10.98L3.71-10.98L3.71-10.98Q3.54-10.90 3.41-10.90L3.41-10.90L3.41-10.90Q3.15-10.90 3.00-11.04L3.00-11.04L3.00-11.04Q2.86-11.18 2.86-11.39L2.86-11.39L2.86-11.39Q2.86-11.52 2.92-11.66L2.92-11.66L2.92-11.66Q2.98-11.80 3.15-11.95L3.15-11.95L3.15-11.95Q3.32-12.10 3.61-12.26L3.61-12.26L3.61-12.26Q3.91-12.41 4.38-12.60L4.38-12.60L4.38-12.60Q5.24-12.92 6.25-13.09L6.25-13.09L6.25-13.09Q7.26-13.26 8.37-13.26L8.37-13.26L8.37-13.26Q9.70-13.26 10.89-13.03L10.89-13.03L10.89-13.03Q12.07-12.81 12.87-12.41L12.87-12.41L12.87-12.41Q13.53-12.08 14.02-11.66L14.02-11.66L14.02-11.66Q14.51-11.23 14.84-10.66L14.84-10.66L14.84-10.66Q15.17-10.10 15.34-9.36L15.34-9.36L15.34-9.36Q15.50-8.62 15.50-7.65L15.50-7.65L15.50 0L10.28 0L10.28-0.81L10.28-0.81Q9.44-0.24 8.58-0.01L8.58-0.01L8.58-0.01Q7.73 0.23 6.81 0.23L6.81 0.23L6.81 0.23Q5.57 0.23 4.53-0.09L4.53-0.09L4.53-0.09Q3.50-0.42 2.75-1.04L2.75-1.04L2.75-1.04Q2.00-1.66 1.59-2.57L1.59-2.57L1.59-2.57Q1.17-3.48 1.17-4.66ZM6.75-8.45L6.75-0.68L6.75-0.68Q6.81-0.67 6.88-0.67L6.88-0.67L6.88-0.67Q6.96-0.67 7.03-0.67L7.03-0.67L7.03-0.67Q7.80-0.67 8.62-0.95L8.62-0.95L8.62-0.95Q9.44-1.22 10.28-1.86L10.28-1.86L10.28-7.74L10.28-7.74Q9.47-8.13 8.71-8.31L8.71-8.31L8.71-8.31Q7.95-8.48 7.21-8.48L7.21-8.48L7.21-8.48Q6.97-8.48 6.75-8.45L6.75-8.45Z" transform="translate(121.64306640625 23.4375)"></path><path fill="#FFFFFF" d="M1.03-6.60L1.03-6.60L1.03-6.60Q1.03-7.95 1.51-9.16L1.51-9.16L1.51-9.16Q1.99-10.36 2.91-11.27L2.91-11.27L2.91-11.27Q3.82-12.18 5.14-12.72L5.14-12.72L5.14-12.72Q6.46-13.26 8.13-13.26L8.13-13.26L8.13-13.26Q8.94-13.26 9.76-13.07L9.76-13.07L9.76-13.07Q10.58-12.89 11.35-12.51L11.35-12.51L11.35-17.27L16.38-17.27L16.38 0L11.35 0L11.35-0.67L11.35-0.67Q10.55-0.20 9.71 0.02L9.71 0.02L9.71 0.02Q8.87 0.23 8.00 0.23L8.00 0.23L8.00 0.23Q6.42 0.23 5.13-0.27L5.13-0.27L5.13-0.27Q3.85-0.78 2.94-1.68L2.94-1.68L2.94-1.68Q2.03-2.59 1.53-3.85L1.53-3.85L1.53-3.85Q1.03-5.10 1.03-6.60ZM7.17-12.32L7.17-0.74L7.17-0.74Q7.39-0.71 7.64-0.69L7.64-0.69L7.64-0.69Q7.89-0.67 8.12-0.67L8.12-0.67L8.12-0.67Q8.94-0.67 9.76-0.94L9.76-0.94L9.76-0.94Q10.58-1.21 11.35-1.75L11.35-1.75L11.35-11.43L11.35-11.43Q10.50-11.91 9.63-12.14L9.63-12.14L9.63-12.14Q8.76-12.37 7.89-12.37L7.89-12.37L7.89-12.37Q7.70-12.37 7.52-12.35L7.52-12.35L7.52-12.35Q7.34-12.34 7.17-12.32L7.17-12.32Z" transform="translate(138.85498046875 23.4375)"></path></g></svg></g> <!----></g>  <!----></svg>